
<svg width="512px" height="512px" viewBox="0 0 512 512" version="1.1" xmlns="http://www.w3.org/2000/svg" xmlns:xlink="http://www.w3.org/1999/xlink">
    <!-- Generator: Sketch 44.1 (41455) - http://www.bohemiancoding.com/sketch -->
    <desc>Created with Sketch.</desc>
    <defs></defs>
    <g id="Page-1" stroke="none" stroke-width="1" fill="none" fill-rule="evenodd">
        <g id="play/ic_launcher_APP" fill="#262525" stroke="#979797">
            <g id="purify-logo">
                <path d="M241,80.2155084 L241,80 L209,80 L209,507.694961 C90.0631472,485.624977 0,381.330176 0,256 C0,114.615104 114.615104,0 256,0 C397.384896,0 512,114.615104 512,256 C512,397.384896 397.384896,512 256,512 C250.964724,512 245.963401,511.854627 241,511.56785 L241,286.826827 C242.719259,286.994259 244.73968,287.079483 247.083992,287.079483 C303.922934,287.079483 350,240.723162 350,183.539742 C350,126.356321 303.922934,80 247.083992,80 C244.73968,80 242.719259,80.072492 241,80.2155084 Z M241,92.6332271 C262.26865,108.672293 318.909904,138.685594 323.505932,175.105473 C323.701852,176.657983 323.803198,178.222134 323.803198,179.797341 C323.803198,218.324876 263.175292,253.636354 241,272.576097 L241,92.6332271 Z" id="Combined-Shape"></path>
            </g>
        </g>
    </g>
</svg>